<svg width="60" height="60" viewBox="0 0 60 60" fill="none" xmlns="http://www.w3.org/2000/svg">
<path d="M30 52.2656C30.6472 52.2656 31.1719 51.741 31.1719 51.0938C31.1719 50.4465 30.6472 49.9219 30 49.9219C29.3528 49.9219 28.8281 50.4465 28.8281 51.0938C28.8281 51.741 29.3528 52.2656 30 52.2656Z" fill="#C9C783"/>
<path d="M49.2197 15.6842L30.4697 7.48107C30.1703 7.35006 29.8297 7.35006 29.5303 7.48107C18.0325 12.5113 10.8005 15.6754 10.7885 15.6806C10.7769 15.6908 10.0781 15.9647 10.0781 16.7579V23.9907C8.71418 24.4744 7.73438 25.777 7.73438 27.3048V31.9923C7.73438 32.6395 8.25914 33.1641 8.90625 33.1641H13.5938C14.2409 33.1641 14.7656 32.6395 14.7656 31.9923V27.3048C14.7656 25.7771 13.7858 24.4744 12.4219 23.9907V18.5497L19.4531 21.6258V29.6485C19.4531 30.1119 19.7262 30.5317 20.1497 30.7197C20.3746 30.8194 25.7077 33.1641 30 33.1641C34.2923 33.1641 39.6254 30.8194 39.8503 30.7197C40.2738 30.5317 40.5469 30.1119 40.5469 29.6485V21.6258L49.2197 17.8315C49.6464 17.645 49.9219 17.2236 49.9219 16.7579C49.9219 16.2922 49.6462 15.8709 49.2197 15.6842ZM12.4219 30.8204H10.0781V27.3048C10.0781 26.6586 10.6038 26.1329 11.25 26.1329C11.8962 26.1329 12.4219 26.6586 12.4219 27.3048V30.8204ZM38.2031 28.8659C36.6817 29.4718 32.962 30.8204 30 30.8204C27.0446 30.8204 23.3197 29.4711 21.7969 28.8655V22.6512L29.5303 26.0347C29.8295 26.1656 30.1703 26.1657 30.4697 26.0347L38.2031 22.6512V28.8659ZM30 23.6819C27.7587 22.7013 16.417 17.7393 14.1737 16.7579L30 9.83385L45.8263 16.7579C43.766 17.6592 31.2002 23.1568 30 23.6819Z" fill="#C9C783"/>
<path d="M54.1406 23.7891H44.0625C43.4154 23.7891 42.8906 24.3137 42.8906 24.9609C42.8906 25.6082 43.4154 26.1328 44.0625 26.1328H54.1406C54.7877 26.1328 55.3125 25.6082 55.3125 24.9609C55.3125 24.3137 54.7877 23.7891 54.1406 23.7891Z" fill="#C9C783"/>
<path d="M54.1406 28.4766H44.0625C43.4154 28.4766 42.8906 29.0012 42.8906 29.6484C42.8906 30.2957 43.4154 30.8203 44.0625 30.8203H54.1406C54.7877 30.8203 55.3125 30.2957 55.3125 29.6484C55.3125 29.0012 54.7877 28.4766 54.1406 28.4766Z" fill="#C9C783"/>
<path d="M30 2.34375C30.6472 2.34375 31.1719 1.81908 31.1719 1.17188C31.1719 0.524666 30.6472 0 30 0C29.3528 0 28.8281 0.524666 28.8281 1.17188C28.8281 1.81908 29.3528 2.34375 30 2.34375Z" fill="#C9C783"/>
<path d="M58.8281 0H35.2734C34.6263 0 34.1016 0.524648 34.1016 1.17188C34.1016 1.8191 34.6263 2.34375 35.2734 2.34375H57.6562V38.2031H2.34375V2.34375H24.7266C25.3737 2.34375 25.8984 1.8191 25.8984 1.17188C25.8984 0.524648 25.3737 0 24.7266 0H1.17188C0.524766 0 0 0.524648 0 1.17188V46.4062C0 47.0535 0.524766 47.5781 1.17188 47.5781H23.8989L21.9974 57.6562H18.2812C17.6341 57.6562 17.1094 58.1809 17.1094 58.8281C17.1094 59.4754 17.6341 60 18.2812 60H41.7188C42.3659 60 42.8906 59.4754 42.8906 58.8281C42.8906 58.1809 42.3659 57.6562 41.7188 57.6562H38.0026L36.1011 47.5781H58.8281C59.4752 47.5781 60 47.0535 60 46.4062V1.17188C60 0.524648 59.4752 0 58.8281 0ZM24.3824 57.6562L26.2839 47.5781H33.716L35.6175 57.6562H24.3824ZM57.6562 45.2344C56.4177 45.2344 2.47477 45.2344 2.34375 45.2344V40.5469H57.6562V45.2344Z" fill="#C9C783"/>
</svg>
