<svg width="60" height="60" viewBox="0 0 60 60" fill="none" xmlns="http://www.w3.org/2000/svg">
<path d="M30 15.9375C24.8306 15.9375 20.625 20.1431 20.625 25.3125C20.625 30.4819 24.8306 34.6875 30 34.6875C35.1694 34.6875 39.375 30.4819 39.375 25.3125C39.375 20.1431 35.1694 15.9375 30 15.9375ZM30 32.8125C25.8647 32.8125 22.5 29.4478 22.5 25.3125C22.5 21.1772 25.8647 17.8125 30 17.8125C34.1353 17.8125 37.5 21.1772 37.5 25.3125C37.5 29.4478 34.1353 32.8125 30 32.8125Z" fill="#C9C783"/>
<path d="M51.5625 34.7428V21.5072C55.7747 21.0394 59.0625 17.4609 59.0625 13.125C59.0625 8.78906 55.7747 5.21063 51.5625 4.74281V0.9375H8.4375V4.74281C4.22531 5.21063 0.9375 8.78906 0.9375 13.125C0.9375 17.4609 4.22531 21.0394 8.4375 21.5072V34.7428C4.22531 35.2106 0.9375 38.7891 0.9375 43.125C0.9375 47.4609 4.22531 51.0394 8.4375 51.5072V55.3125H25.4072C25.8431 57.4491 27.7359 59.0625 30 59.0625C32.2641 59.0625 34.1569 57.4491 34.5928 55.3125H51.5625V51.5072C55.7747 51.0394 59.0625 47.4609 59.0625 43.125C59.0625 38.7891 55.7747 35.2106 51.5625 34.7428ZM44.4056 37.4428L39.7556 34.0612C41.8434 31.7372 43.125 28.6753 43.125 25.3125C43.125 23.5866 42.7819 21.9412 42.1734 20.43L44.4056 18.8072C45.7509 20.2781 47.6025 21.2756 49.6875 21.5072V34.7428C47.6025 34.9744 45.7509 35.9719 44.4056 37.4428ZM30.9375 42.1875H29.0625V38.3897C29.3738 38.4122 29.6831 38.4375 30 38.4375C30.3169 38.4375 30.6262 38.4122 30.9375 38.3897V42.1875ZM30 36.5625C23.7966 36.5625 18.75 31.5159 18.75 25.3125C18.75 19.1091 23.7966 14.0625 30 14.0625C36.2034 14.0625 41.25 19.1091 41.25 25.3125C41.25 31.5159 36.2034 36.5625 30 36.5625ZM10.3125 34.7428V21.5072C12.3975 21.2756 14.2491 20.2781 15.5944 18.8072L17.8266 20.4309C17.2181 21.9412 16.875 23.5866 16.875 25.3125C16.875 28.6753 18.1575 31.7372 20.2444 34.0612L15.5944 37.4428C14.2491 35.9719 12.3975 34.9744 10.3125 34.7428ZM57.1875 13.125C57.1875 16.7428 54.2428 19.6875 50.625 19.6875C47.0072 19.6875 44.0625 16.7428 44.0625 13.125C44.0625 9.50719 47.0072 6.5625 50.625 6.5625C54.2428 6.5625 57.1875 9.50719 57.1875 13.125ZM49.6875 2.8125V4.74281C45.4753 5.21063 42.1875 8.78906 42.1875 13.125C42.1875 14.6419 42.5953 16.0631 43.2984 17.2941L41.3325 18.7238C39.0553 14.8219 34.8347 12.1875 30 12.1875C25.1653 12.1875 20.9437 14.8219 18.6666 18.7238L16.7006 17.2941C17.4047 16.0631 17.8125 14.6419 17.8125 13.125C17.8125 8.78906 14.5247 5.21063 10.3125 4.74281V2.8125H49.6875ZM2.8125 13.125C2.8125 9.50719 5.75719 6.5625 9.375 6.5625C12.9928 6.5625 15.9375 9.50719 15.9375 13.125C15.9375 16.7428 12.9928 19.6875 9.375 19.6875C5.75719 19.6875 2.8125 16.7428 2.8125 13.125ZM2.8125 43.125C2.8125 39.5072 5.75719 36.5625 9.375 36.5625C12.9928 36.5625 15.9375 39.5072 15.9375 43.125C15.9375 46.7428 12.9928 49.6875 9.375 49.6875C5.75719 49.6875 2.8125 46.7428 2.8125 43.125ZM25.3125 45V53.4375H10.3125V51.5072C14.5247 51.0394 17.8125 47.4609 17.8125 43.125C17.8125 41.6081 17.4047 40.1869 16.7016 38.9559L21.6047 35.3897C23.1928 36.7144 25.0978 37.6678 27.1875 38.1263V42.1875C27.1875 42.2447 27.1997 42.2991 27.2044 42.3553C26.1066 42.7388 25.3125 43.7728 25.3125 45ZM32.8125 54.375C32.8125 55.9256 31.5506 57.1875 30 57.1875C28.4494 57.1875 27.1875 55.9256 27.1875 54.375V45C27.1875 44.4825 27.6075 44.0625 28.125 44.0625H29.0625H30.9375H31.875C32.3925 44.0625 32.8125 44.4825 32.8125 45V54.375ZM34.6875 53.4375V45C34.6875 43.7728 33.8934 42.7388 32.7956 42.3553C32.8003 42.2991 32.8125 42.2447 32.8125 42.1875V38.1263C34.9022 37.6678 36.8072 36.7153 38.3953 35.3897L43.2984 38.9559C42.5953 40.1869 42.1875 41.6081 42.1875 43.125C42.1875 47.4609 45.4753 51.0394 49.6875 51.5072V53.4375H34.6875ZM50.625 49.6875C47.0072 49.6875 44.0625 46.7428 44.0625 43.125C44.0625 39.5072 47.0072 36.5625 50.625 36.5625C54.2428 36.5625 57.1875 39.5072 57.1875 43.125C57.1875 46.7428 54.2428 49.6875 50.625 49.6875Z" fill="#C9C783"/>
<path d="M48.7497 44.6118L47.5375 43.3997L46.2119 44.7253L48.7497 47.2631L55.0375 40.9753L53.7119 39.6497L48.7497 44.6118Z" fill="#C9C783"/>
<path d="M10.3125 47.8125V44.0625H14.0625V42.1875H10.3125V38.4375H8.4375V42.1875H4.6875V44.0625H8.4375V47.8125H10.3125Z" fill="#C9C783"/>
<path d="M49.4128 9.2615C48.7444 9.92994 47.82 10.3124 46.875 10.3124H45.9375V11.2499C45.9375 13.9209 47.4216 16.3209 49.8103 17.5162L50.625 17.9231L51.4397 17.5153C53.8284 16.3209 55.3125 13.9209 55.3125 11.2499V10.3124H54.375C53.43 10.3124 52.5056 9.92994 51.8372 9.2615L50.625 8.04932L49.4128 9.2615ZM53.3691 12.0918C53.1075 13.6921 52.1053 15.0768 50.625 15.8259C49.1447 15.0759 48.1434 13.6921 47.8809 12.0918C48.9028 11.8987 49.8637 11.414 50.625 10.6978C51.3863 11.4149 52.3472 11.8987 53.3691 12.0918Z" fill="#C9C783"/>
<path d="M13.2056 14.37C13.7503 13.8253 14.0625 13.0716 14.0625 12.3009C14.0625 10.6875 12.75 9.375 11.1366 9.375C10.5019 9.375 9.87937 9.58687 9.375 9.96469C8.87063 9.58687 8.24813 9.375 7.61344 9.375C6 9.375 4.6875 10.6875 4.6875 12.3009C4.6875 13.0716 4.99969 13.8253 5.54438 14.37L9.375 18.2006L13.2056 14.37ZM6.5625 12.3009C6.5625 11.7216 7.03406 11.25 7.61344 11.25C7.89 11.25 8.16094 11.3616 8.35687 11.5575L9.375 12.5756L10.3931 11.5575C10.5891 11.3616 10.86 11.25 11.1366 11.25C11.7159 11.25 12.1875 11.7216 12.1875 12.3009C12.1875 12.5775 12.0759 12.8484 11.88 13.0444L9.375 15.5494L6.87 13.0444C6.67406 12.8484 6.5625 12.5775 6.5625 12.3009Z" fill="#C9C783"/>
</svg>
