<svg width="46" height="50" viewBox="0 0 46 50" fill="none" xmlns="http://www.w3.org/2000/svg">
<path d="M44.2554 45.543H44.0022V43.5331C44.0022 42.9961 43.5654 42.5593 43.0284 42.5593H41.1811V41.2722C41.1811 40.6845 40.7973 40.1856 40.2676 40.0106V36.2536C40.2676 35.8519 39.9419 35.5262 39.5402 35.5262C39.1386 35.5262 38.8129 35.8519 38.8129 36.2536V39.9431H36.5282V21.1902H38.8129V32.8868C38.8129 33.2885 39.1386 33.6141 39.5402 33.6141C39.9419 33.6141 40.2676 33.2884 40.2676 32.8868V21.1225C40.7974 20.9475 41.1811 20.4485 41.1811 19.8609V18.5834H43.2444C43.7814 18.5834 44.2184 18.1465 44.2184 17.6096V15.1003C44.2184 14.5633 43.7814 14.1264 43.2444 14.1264H40.5262L24.0403 0.377087C23.4375 -0.125745 22.5623 -0.125647 21.9593 0.377087L13.6589 7.29965C13.3504 7.55697 13.3089 8.01556 13.5662 8.32406C13.8235 8.63256 14.2821 8.67406 14.5907 8.41683L22.8911 1.49427C22.9541 1.44174 23.0456 1.44174 23.1086 1.49427L38.2313 14.1067H7.76836L12.0116 10.5678C12.3201 10.3105 12.3616 9.85189 12.1043 9.5434C11.847 9.2348 11.3884 9.19349 11.0798 9.45062L5.47344 14.1263H2.75518C2.21816 14.1263 1.78135 14.5632 1.78135 15.1002V17.6095C1.78135 18.1465 2.21816 18.5833 2.75518 18.5833H4.81846V19.8608C4.81846 20.4485 5.20215 20.9474 5.73193 21.1224V40.0103C5.20215 40.1853 4.81846 40.6843 4.81846 41.2719V42.559H2.97129C2.43428 42.559 1.99746 42.9958 1.99746 43.5328V45.5427H1.74434C1.20732 45.5427 0.770508 45.9795 0.770508 46.5165V49.0258C0.770508 49.5628 1.20732 49.9997 1.74434 49.9997H44.2554C44.7924 49.9997 45.2292 49.5628 45.2292 49.0258V46.5165C45.2292 45.9798 44.7923 45.543 44.2554 45.543ZM39.5401 41.4081C39.5805 41.4081 39.6196 41.404 39.6582 41.3977H39.7263V42.5437H35.6145V41.3977H35.6826C35.7211 41.4039 35.7603 41.4081 35.8007 41.4081H39.5401ZM39.7263 19.7352H39.5635C39.5557 19.735 39.5479 19.734 39.5401 19.734H35.8007C35.7928 19.734 35.7852 19.735 35.7773 19.7352H35.6145V18.5892H39.7263V19.7352ZM3.23613 17.1287V15.5811H42.7636V17.1287H3.23613ZM17.7693 42.5592V29.8165C17.7693 26.9506 20.1009 24.6192 22.9667 24.6192H23.0329C25.8988 24.6192 28.2303 26.9507 28.2303 29.8165V42.5592H17.7693ZM23.0329 23.1644H22.9667C19.2986 23.1644 16.3146 26.1485 16.3146 29.8165V42.5592H11.8396V41.2721C11.8396 40.6844 11.456 40.1855 10.9262 40.0105V21.1225C11.456 20.9475 11.8396 20.4485 11.8396 19.8609V18.5834H34.1597V19.8609C34.1597 20.4486 34.5435 20.9475 35.0731 21.1225V40.0104C34.5434 40.1854 34.1597 40.6844 34.1597 41.272V42.5591H29.685V29.8165C29.6851 26.1485 26.7009 23.1644 23.0329 23.1644ZM10.1988 41.4081C10.2392 41.4081 10.2783 41.404 10.3169 41.3977H10.385V42.5437H6.27324V41.3977H6.34131C6.37979 41.4039 6.41904 41.4081 6.45937 41.4081H10.1988ZM7.18672 39.9429V21.19H9.47148V39.9429H7.18672ZM10.2223 19.7352C10.2145 19.735 10.2067 19.734 10.1989 19.734H6.45937C6.45146 19.734 6.44385 19.735 6.43604 19.7352H6.27324V18.5892H10.385V19.7352H10.2223ZM3.45215 44.014H42.5474V45.543H3.45215V44.014ZM43.7744 48.5453H2.2252V46.9978H43.7744V48.5453Z" fill="#C9C783"/>
</svg>
