<svg width="282" height="561" viewBox="0 0 282 561" fill="none" xmlns="http://www.w3.org/2000/svg">
<path d="M108.053 205.342C55.4587 167.763 53.2673 130.632 58.7459 116.763C5.05521 177.963 28.1567 217.421 46.4189 229.5C-2.88886 235.942 -3.34536 273.342 2.58986 291.237C33.2702 246.142 113.989 289.447 150.513 316.737C195.437 361.832 193.885 398.158 187.493 410.684C159.005 474.032 113.532 457.658 94.3568 441.553C66.9637 413.637 82.943 384.289 94.3568 373.105C108.601 359.147 137.729 367.289 150.513 373.105C136.268 340.895 95.2699 331.947 76.5513 331.5C12.9993 348.679 8.06851 405.763 13.5471 432.158C35.4616 518.053 125.859 525.211 168.318 518.053C274.604 475.105 264.651 382.053 246.389 340.895C231.049 306.537 147.773 236.211 108.053 205.342Z" fill="#C9C783" fill-opacity="0.47"/>
<path d="M282 291.237V0C237.258 22.7858 139.829 78.0385 108.053 116.763C161.014 158.368 269.947 251.511 282 291.237Z" fill="#C9C783" fill-opacity="0.47"/>
<path d="M282 479.132L246.389 518.053L282 561V479.132Z" fill="#C9C783" fill-opacity="0.47"/>
</svg>
