<svg width="342" height="677" viewBox="0 0 342 677" fill="none" xmlns="http://www.w3.org/2000/svg">
<path d="M131.044 247.801C67.2584 202.452 64.6007 157.643 71.245 140.907C6.13079 214.761 34.1475 262.378 56.2952 276.955C-3.50351 284.729 -4.05714 329.862 3.14089 351.457C40.3489 297.038 138.241 349.297 182.537 382.23C237.02 436.649 235.137 480.486 227.386 495.603C192.835 572.049 137.688 552.289 114.433 532.854C81.2113 499.166 100.59 463.75 114.433 450.254C131.708 433.41 167.033 443.235 182.537 450.254C165.262 411.383 115.54 400.585 92.8388 400.045C15.7651 420.777 9.78521 489.664 16.4295 521.517C43.0066 625.172 152.637 633.81 204.131 625.172C333.03 573.344 320.959 461.051 298.812 411.383C280.208 369.921 179.215 285.053 131.044 247.801Z" fill="#C9C783" fill-opacity="0.47"/>
<path d="M342 351.457V0C287.738 27.4973 169.58 94.1748 131.044 140.907C195.272 191.115 327.383 303.516 342 351.457Z" fill="#C9C783" fill-opacity="0.47"/>
<path d="M342 578.203L298.812 625.172L342 677V578.203Z" fill="#C9C783" fill-opacity="0.47"/>
</svg>
