<svg width="293" height="291" viewBox="0 0 293 291" fill="none" xmlns="http://www.w3.org/2000/svg">
<path d="M56.1315 106.497C28.8096 87.007 27.6712 67.7494 30.5172 60.5569C2.62608 92.297 14.6268 112.761 24.1136 119.026C-1.5007 122.367 -1.73784 141.763 1.34538 151.044C17.2831 127.657 59.2146 150.116 78.1882 164.269C101.526 187.657 100.719 206.497 97.3988 212.993C82.5995 245.847 58.9775 237.355 49.0164 229.002C34.7862 214.524 43.0871 199.304 49.0164 193.504C56.416 186.265 71.5474 190.487 78.1882 193.504C70.7885 176.798 49.4907 172.158 39.7668 171.926C6.75284 180.835 4.19142 210.441 7.03745 224.13C18.4216 268.678 65.381 272.39 87.4378 268.678C142.651 246.404 137.48 198.144 127.994 176.798C120.025 158.979 76.7652 122.506 56.1315 106.497Z" fill="#07674D"/>
<path d="M146.493 151.044V0C123.25 11.8174 72.6384 40.4731 56.1315 60.5569C83.6431 82.1346 140.232 130.441 146.493 151.044Z" fill="#07674D"/>
<path d="M146.493 248.492L127.994 268.678L146.493 290.951V248.492Z" fill="#07674D"/>
<path d="M236.855 106.497C264.176 87.007 265.315 67.7494 262.469 60.5569C290.36 92.297 278.359 112.761 268.872 119.026C294.487 122.367 294.724 141.763 291.641 151.044C275.703 127.657 233.771 150.116 214.798 164.269C191.46 187.657 192.267 206.497 195.587 212.993C210.387 245.847 234.009 237.355 243.97 229.002C258.2 214.524 249.899 199.304 243.97 193.504C236.57 186.265 221.439 190.487 214.798 193.504C222.198 176.798 243.495 172.158 253.219 171.926C286.233 180.835 288.795 210.441 285.949 224.13C274.564 268.678 227.605 272.39 205.548 268.678C150.335 246.404 155.506 198.144 164.992 176.798C172.961 158.979 216.221 122.506 236.855 106.497Z" fill="#07674D"/>
<path d="M146.493 151.044V0C169.736 11.8174 220.348 40.4731 236.855 60.5569C209.343 82.1346 152.754 130.441 146.493 151.044Z" fill="#07674D"/>
<path d="M146.493 248.492L164.992 268.678L146.493 290.951V248.492Z" fill="#07674D"/>
</svg>
