<svg width="20" height="13" viewBox="0 0 20 13" fill="none" xmlns="http://www.w3.org/2000/svg">
<path d="M0 6.73435C0 7.19878 0.366154 7.5757 0.817308 7.5757H16.8251L13.3172 11.1868C12.9985 11.5149 12.9985 12.0483 13.3172 12.3764C13.636 12.7045 14.1541 12.7045 14.4729 12.3764L19.3767 7.32834C19.4519 7.25094 19.5124 7.15839 19.5533 7.05575C19.5925 6.9531 19.6154 6.84541 19.6154 6.73772C19.6154 6.73604 19.6154 6.73604 19.6154 6.73435C19.6154 6.62498 19.5941 6.5156 19.5516 6.41296C19.5108 6.31031 19.4503 6.21777 19.3751 6.14036L14.4712 1.09229C14.1525 0.76416 13.6343 0.76416 13.3156 1.09229C12.9968 1.42041 12.9968 1.95382 13.3156 2.28195L16.8251 5.89301H0.817308C0.366154 5.89301 0 6.26993 0 6.73435Z" fill="#00B3B3"/>
</svg>
