<svg width="18" height="20" viewBox="0 0 18 20" fill="none" xmlns="http://www.w3.org/2000/svg">
<path d="M15 14.09C14.24 14.09 13.555 14.385 13.035 14.86L5.91 10.705C5.965 10.48 6 10.245 6 10.005C6 9.765 5.965 9.53 5.91 9.305L12.96 5.19C13.495 5.69 14.21 6 15 6C16.655 6 18 4.655 18 3C18 1.345 16.655 0 15 0C13.345 0 12 1.345 12 3C12 3.24 12.035 3.475 12.09 3.7L5.04 7.815C4.505 7.315 3.79 7.005 3 7.005C1.345 7.005 0 8.35 0 10.005C0 11.66 1.345 13.005 3 13.005C3.79 13.005 4.505 12.695 5.04 12.195L12.165 16.35C12.115 16.56 12.085 16.78 12.085 17.005C12.085 18.615 13.39 19.92 15 19.92C16.61 19.92 17.915 18.615 17.915 17.005C17.915 15.395 16.61 14.09 15 14.09Z" fill="#808080"/>
</svg>
