<svg width="48" height="48" viewBox="0 0 48 48" fill="none" xmlns="http://www.w3.org/2000/svg">
<path d="M33.6825 15.4285H14.3164L23.9994 23.7283L33.6825 15.4285Z" fill="#C9C783"/>
<path d="M23.9983 25.7144C23.7937 25.7144 23.5957 25.6411 23.4404 25.5076L12.8555 16.4348V32.5715H35.1412V16.4348L24.5562 25.5076C24.401 25.6411 24.203 25.7144 23.9983 25.7144Z" fill="#C9C783"/>
<path d="M24 0C10.7453 0 0 10.7453 0 24C0 37.2547 10.7453 48 24 48C37.2547 48 48 37.2547 48 24C47.9849 10.7515 37.2485 0.015067 24 0ZM36.8571 33.4286C36.8571 33.9019 36.4734 34.2857 36 34.2857H12C11.5266 34.2857 11.1429 33.9019 11.1429 33.4286V14.5714C11.1429 14.0981 11.5266 13.7143 12 13.7143H36C36.4734 13.7143 36.8571 14.0981 36.8571 14.5714V33.4286Z" fill="#C9C783"/>
</svg>
