<svg width="156" height="50" viewBox="0 0 156 50" fill="none" xmlns="http://www.w3.org/2000/svg">
<path d="M149.175 42.6742C145.509 42.6742 142.525 39.7091 142.525 36.0657C142.525 32.4417 145.509 29.4766 149.175 29.4766C152.821 29.4766 155.805 32.4417 155.805 36.0657C155.805 39.7091 152.821 42.6742 149.175 42.6742Z" fill="#EF774E"/>
<path d="M14.4303 42.2092C10.7838 42.2092 7.80031 39.244 7.80031 35.62V26.8991C9.76981 27.9456 12.0318 28.527 14.4303 28.527C18.3693 28.527 21.9183 26.9378 24.4923 24.3797C27.0663 21.8216 28.6653 18.2751 28.6653 14.3797C28.6653 8.95335 25.5843 4.24405 21.0798 1.86033C19.0908 0.833197 16.8288 0.251802 14.4303 0.251802C12.0318 0.251802 9.76981 0.833197 7.80031 1.87971C3.27631 4.26343 0.195312 8.97273 0.195312 14.3991V35.62C0.195312 43.4301 6.57181 49.7673 14.4303 49.7673C18.3693 49.7673 21.9183 48.1781 24.4923 45.62C27.0663 43.0619 28.6653 39.5154 28.6653 35.62H21.0798C21.0798 39.244 18.0963 42.2092 14.4303 42.2092ZM14.4303 7.79056C18.0963 7.79056 21.0798 10.7557 21.0798 14.3991C21.0798 18.0231 18.0963 20.9882 14.4303 20.9882C10.7838 20.9882 7.80031 18.0231 7.80031 14.3991C7.78081 10.7557 10.7643 7.79056 14.4303 7.79056ZM50.0178 0.251802C57.8763 0.251802 64.2528 6.58901 64.2528 14.3991V49.7479H56.6673V14.3991C56.6673 10.7557 53.6838 7.79056 50.0373 7.79056C46.3713 7.79056 43.4073 10.7557 43.4073 14.3991V49.7479H35.8023V14.3991C35.7633 6.58901 42.1398 0.251802 50.0178 0.251802ZM121.173 7.79056C124.839 7.79056 127.803 10.7557 127.803 14.3797V23.1006C125.834 22.0541 123.572 21.4533 121.173 21.4533C117.234 21.4533 113.685 23.0425 111.111 25.6006C108.537 28.1588 106.938 31.7053 106.938 35.6006C106.938 41.027 110.019 45.7363 114.524 48.12C116.493 49.1665 118.775 49.7673 121.173 49.7673C123.572 49.7673 125.834 49.1859 127.803 48.12C132.327 45.7363 135.389 41.027 135.389 35.6006V14.3797C135.389 6.56963 129.012 0.232422 121.154 0.232422C117.215 0.232422 113.666 1.82157 111.092 4.37971C108.518 6.93785 106.919 10.4844 106.919 14.3797H114.504C114.524 10.7557 117.507 7.79056 121.173 7.79056ZM121.173 42.2092C117.507 42.2092 114.524 39.244 114.524 35.6006C114.524 31.9766 117.507 29.0115 121.173 29.0115C124.839 29.0115 127.803 31.9766 127.803 35.6006C127.803 39.244 124.839 42.2092 121.173 42.2092ZM98.8458 40.7363C99.4698 39.1471 99.8208 37.4223 99.8208 35.6006V14.3797C99.8208 6.56963 93.4443 0.232422 85.5858 0.232422C77.7273 0.232422 71.3508 6.56963 71.3508 14.3797V35.6006C71.3508 43.4107 77.7273 49.7479 85.5858 49.7479C88.8423 49.7479 91.8453 48.6626 94.2438 46.8216L97.1883 49.7479L99.8598 47.0929L102.531 44.4185L98.8458 40.7363ZM92.2353 34.1471L88.3353 30.2712L82.9728 35.6006L88.8033 41.3758C87.8673 41.8991 86.7558 42.1898 85.6053 42.1898C81.9588 42.1898 78.9753 39.2247 78.9753 35.5813V14.3797C78.9753 10.7557 81.9588 7.79056 85.6053 7.79056C89.2713 7.79056 92.2548 10.7557 92.2548 14.3797V34.1471H92.2353Z" fill="#333333"/>
</svg>
