<svg width="48" height="62" viewBox="0 0 48 62" fill="none" xmlns="http://www.w3.org/2000/svg">
<path d="M24 0.484375C10.9128 0.484375 0.265625 11.1315 0.265625 24.2188C0.265625 30.5762 4.11725 38.7403 11.7135 48.4833C15.1937 52.9355 18.9625 57.1544 22.9956 61.1126C23.2661 61.3712 23.6258 61.5156 24 61.5156C24.3742 61.5156 24.7339 61.3712 25.0044 61.1126C29.0375 57.1544 32.8064 52.9355 36.2865 48.4833C43.8827 38.7403 47.7344 30.5762 47.7344 24.2188C47.7344 11.1315 37.0872 0.484375 24 0.484375ZM24 41.1719C14.6516 41.1719 7.04688 33.5672 7.04688 24.2188C7.04688 14.8703 14.6516 7.26562 24 7.26562C33.3484 7.26562 40.9531 14.8703 40.9531 24.2188C40.9531 33.5672 33.3484 41.1719 24 41.1719Z" fill="#C9C783"/>
<path d="M35.6338 22.1748L24.9775 12.4873C24.7101 12.2441 24.3616 12.1094 24.0001 12.1094C23.6386 12.1094 23.2901 12.2441 23.0226 12.4873L12.3664 22.1748C12.1181 22.4005 11.9556 22.7052 11.9064 23.0371C11.8571 23.3691 11.9242 23.7078 12.0963 23.9959C12.2321 24.2152 12.4223 24.3957 12.6486 24.5196C12.8748 24.6435 13.1293 24.7067 13.3872 24.7031H14.797V33.9062C14.797 34.2916 14.95 34.6612 15.2226 34.9337C15.4951 35.2063 15.8647 35.3593 16.2501 35.3593H19.6407C20.0261 35.3593 20.3957 35.2063 20.6682 34.9337C20.9407 34.6612 21.0938 34.2916 21.0938 33.9062V28.5781C21.0938 28.1927 21.2469 27.8231 21.5194 27.5506C21.7919 27.2781 22.1616 27.125 22.5469 27.125H25.4532C25.8386 27.125 26.2082 27.2781 26.4807 27.5506C26.7532 27.8231 26.9063 28.1927 26.9063 28.5781V33.9062C26.9063 34.2916 27.0594 34.6612 27.3319 34.9337C27.6044 35.2063 27.9741 35.3593 28.3594 35.3593H31.7501C32.1355 35.3593 32.5051 35.2063 32.7776 34.9337C33.0501 34.6612 33.2032 34.2916 33.2032 33.9062V24.7031H34.613C34.8709 24.7067 35.1254 24.6435 35.3516 24.5196C35.5778 24.3957 35.7681 24.2152 35.9038 23.9959C36.0759 23.7078 36.143 23.3691 36.0938 23.0371C36.0446 22.7052 35.882 22.4005 35.6338 22.1748Z" fill="#C9C783"/>
</svg>
