<svg width="40" height="40" viewBox="0 0 40 40" fill="none" xmlns="http://www.w3.org/2000/svg">
<circle cx="20" cy="20" r="20" fill="#00BDC8"/>
<path d="M19.875 16.207C17.625 16.207 15.832 18.0352 15.832 20.25C15.832 22.5 17.625 24.293 19.875 24.293C22.0898 24.293 23.918 22.5 23.918 20.25C23.918 18.0352 22.0898 16.207 19.875 16.207ZM19.875 22.8867C18.4336 22.8867 17.2383 21.7266 17.2383 20.25C17.2383 18.8086 18.3984 17.6484 19.875 17.6484C21.3164 17.6484 22.4766 18.8086 22.4766 20.25C22.4766 21.7266 21.3164 22.8867 19.875 22.8867ZM25.0078 16.0664C25.0078 15.5391 24.5859 15.1172 24.0586 15.1172C23.5312 15.1172 23.1094 15.5391 23.1094 16.0664C23.1094 16.5938 23.5312 17.0156 24.0586 17.0156C24.5859 17.0156 25.0078 16.5938 25.0078 16.0664ZM27.6797 17.0156C27.6094 15.75 27.3281 14.625 26.4141 13.7109C25.5 12.7969 24.375 12.5156 23.1094 12.4453C21.8086 12.375 17.9062 12.375 16.6055 12.4453C15.3398 12.5156 14.25 12.7969 13.3008 13.7109C12.3867 14.625 12.1055 15.75 12.0352 17.0156C11.9648 18.3164 11.9648 22.2188 12.0352 23.5195C12.1055 24.7852 12.3867 25.875 13.3008 26.8242C14.25 27.7383 15.3398 28.0195 16.6055 28.0898C17.9062 28.1602 21.8086 28.1602 23.1094 28.0898C24.375 28.0195 25.5 27.7383 26.4141 26.8242C27.3281 25.875 27.6094 24.7852 27.6797 23.5195C27.75 22.2188 27.75 18.3164 27.6797 17.0156ZM25.9922 24.8906C25.7461 25.5938 25.1836 26.1211 24.5156 26.4023C23.4609 26.8242 21 26.7188 19.875 26.7188C18.7148 26.7188 16.2539 26.8242 15.2344 26.4023C14.5312 26.1211 14.0039 25.5938 13.7227 24.8906C13.3008 23.8711 13.4062 21.4102 13.4062 20.25C13.4062 19.125 13.3008 16.6641 13.7227 15.6094C14.0039 14.9414 14.5312 14.4141 15.2344 14.1328C16.2539 13.7109 18.7148 13.8164 19.875 13.8164C21 13.8164 23.4609 13.7109 24.5156 14.1328C25.1836 14.3789 25.7109 14.9414 25.9922 15.6094C26.4141 16.6641 26.3086 19.125 26.3086 20.25C26.3086 21.4102 26.4141 23.8711 25.9922 24.8906Z" fill="white"/>
</svg>
