<svg width="48" height="48" viewBox="0 0 48 48" fill="none" xmlns="http://www.w3.org/2000/svg">
<path d="M40.968 7.02639C31.5941 -2.34477 16.398 -2.34252 7.02688 7.03155C-2.34428 16.4056 -2.34203 31.6015 7.03204 40.9727C16.4061 50.3439 31.602 50.3416 40.9732 40.9675C45.4738 36.4656 48.0014 30.3601 48 23.9944C47.9987 17.6297 45.4693 11.5262 40.968 7.02639ZM36.3472 33.4313C36.3462 33.4323 36.3451 33.4334 36.344 33.4345V33.4265L35.128 34.6345C33.5553 36.227 31.2649 36.8822 29.0879 36.3625C26.8947 35.7754 24.8097 34.8409 22.912 33.5945C21.1489 32.4677 19.515 31.1505 18.04 29.6665C16.6828 28.3192 15.4634 26.8398 14.3999 25.2505C13.2367 23.5403 12.316 21.6773 11.6639 19.7144C10.9165 17.4085 11.5359 14.8783 13.264 13.1785L14.6879 11.7545C15.0838 11.3568 15.7272 11.3554 16.1248 11.7513C16.1258 11.7523 16.1269 11.7534 16.1279 11.7545L20.6239 16.2505C21.0216 16.6464 21.023 17.2897 20.6271 17.6873C20.6261 17.6883 20.625 17.6893 20.6239 17.6905L17.9839 20.3305C17.2264 21.0797 17.1312 22.2703 17.7599 23.1305C18.7148 24.4409 19.7714 25.674 20.92 26.8185C22.2005 28.1046 23.5926 29.2745 25.0799 30.3145C25.9393 30.914 27.1045 30.8129 27.8479 30.0745L30.3999 27.4825C30.7958 27.0849 31.4391 27.0835 31.8367 27.4794C31.8377 27.4804 31.8388 27.4814 31.8399 27.4825L36.3439 31.9945C36.7417 32.3904 36.7431 33.0336 36.3472 33.4313Z" fill="#C9C783"/>
</svg>
