<svg width="20" height="20" viewBox="0 0 20 20" fill="none" xmlns="http://www.w3.org/2000/svg">
<path d="M14.2857 12.5714H13.3829L13.0629 12.2629C14.1829 10.96 14.8571 9.26857 14.8571 7.42857C14.8571 3.32571 11.5314 0 7.42857 0C3.32571 0 0 3.32571 0 7.42857C0 11.5314 3.32571 14.8571 7.42857 14.8571C9.26857 14.8571 10.96 14.1829 12.2629 13.0629L12.5714 13.3829V14.2857L18.2857 19.9886L19.9886 18.2857L14.2857 12.5714ZM7.42857 12.5714C4.58286 12.5714 2.28571 10.2743 2.28571 7.42857C2.28571 4.58286 4.58286 2.28571 7.42857 2.28571C10.2743 2.28571 12.5714 4.58286 12.5714 7.42857C12.5714 10.2743 10.2743 12.5714 7.42857 12.5714Z" fill="#23A380"/>
</svg>
