<svg width="19" height="19" viewBox="0 0 19 19" fill="none" xmlns="http://www.w3.org/2000/svg">
<path d="M3.90104 8.24479C5.40104 11.1927 7.8125 13.6042 10.7656 15.1042L13.0573 12.8073C13.3437 12.5208 13.7552 12.4375 14.1146 12.5521C15.2812 12.9375 16.5365 13.1458 17.8333 13.1458C18.4115 13.1458 18.875 13.6094 18.875 14.1875V17.8333C18.875 18.4115 18.4115 18.875 17.8333 18.875C8.05208 18.875 0.125 10.9479 0.125 1.16667C0.125 0.588542 0.59375 0.125 1.16667 0.125H4.8125C5.39062 0.125 5.85417 0.588542 5.85417 1.16667C5.85417 2.46354 6.0625 3.71875 6.44792 4.88542C6.5625 5.24479 6.47917 5.65625 6.19271 5.94271L3.90104 8.24479Z" fill="white"/>
</svg>
