<svg width="467" height="463" viewBox="0 0 467 463" fill="none" xmlns="http://www.w3.org/2000/svg">
<path d="M89.4698 169.471C45.9206 138.457 44.106 107.812 48.6424 96.366C4.18579 146.875 23.3142 179.44 38.4355 189.409C-2.39202 194.726 -2.77 225.592 2.14444 240.361C27.5482 203.144 94.3841 238.884 124.627 261.407C161.825 298.624 160.54 328.604 155.247 338.943C131.658 391.224 94.0061 377.711 78.1288 364.419C55.4469 341.379 68.678 317.159 78.1288 307.928C89.9233 296.409 114.042 303.128 124.627 307.928C112.832 281.344 78.8848 273.96 63.3856 273.591C10.7636 287.769 6.68084 334.881 11.2172 356.665C29.3627 427.555 104.213 433.463 139.37 427.555C227.376 392.11 219.135 315.313 204.013 281.345C191.311 252.989 122.359 194.947 89.4698 169.471Z" fill="#07674D"/>
<path d="M377.53 169.471C421.079 138.457 422.894 107.812 418.358 96.366C462.814 146.875 443.686 179.44 428.565 189.409C469.392 194.726 469.77 225.592 464.856 240.361C439.452 203.144 372.616 238.884 342.373 261.407C305.175 298.624 306.46 328.604 311.753 338.943C335.342 391.224 372.994 377.711 388.871 364.419C411.553 341.379 398.322 317.159 388.871 307.928C377.077 296.409 352.958 303.128 342.373 307.928C354.168 281.344 388.115 273.96 403.614 273.591C456.236 287.769 460.319 334.881 455.783 356.665C437.637 427.555 362.787 433.463 327.63 427.555C239.624 392.11 247.865 315.313 262.987 281.345C275.689 252.989 344.641 194.947 377.53 169.471Z" fill="#07674D"/>
<path d="M233.5 0C196.453 18.8054 115.781 64.4061 89.4698 96.366C133.322 130.703 223.52 207.575 233.5 240.361C243.48 207.575 333.678 130.703 377.53 96.366C351.219 64.4061 270.547 18.8054 233.5 0Z" fill="#07674D"/>
<path d="M233.5 395.433L204.013 427.555L233.5 463L262.987 427.555L233.5 395.433Z" fill="#07674D"/>
</svg>
